<svg xmlns="http://www.w3.org/2000/svg" viewBox="0 0 473.03 161.33"><defs><style>.cls-1{fill:#fff;}.cls-2{fill:none;stroke:#fff;stroke-miterlimit:10;stroke-width:13.2px;}</style></defs><g id="圖層_1" data-name="圖層 1"><path class="cls-1" d="M73.7,141.55c.7-.1,1.4-.13,2.23-.23.27-.4.63-.84.93-1.3a182.27,182.27,0,0,1,18.59-25.69,98.91,98.91,0,0,1,17-15.85,24.22,24.22,0,0,1,5.3-3.07,10.14,10.14,0,0,1,5.79-.63,7.17,7.17,0,0,1,5.53,6,14.78,14.78,0,0,1-.7,6.26c-.8,2.63-1.66,5.23-2.56,7.83a196.23,196.23,0,0,0-6.3,20.85c-.17.8-.33,1.63-.57,2.6a3.19,3.19,0,0,0,.8.23c7.4.37,14.79.7,22.32,1.07.3-.44.67-1,1-1.5a196.38,196.38,0,0,1,12.22-19c7-9.56,14.79-18.36,24.12-25.72a68.12,68.12,0,0,1,8.13-5.69A80.66,80.66,0,0,0,47,141.72c0,1.83.07,3.66.2,5.49,5.06-1.43,10.19-2.6,15.32-3.63,3.73-.77,7.5-1.36,11.23-2" transform="translate(-46.95 -61.07)"/><path class="cls-1" d="M120.17,146.55a7.36,7.36,0,0,0-2.77.46c-.06.47-.2.93-.26,1.43a122.23,122.23,0,0,0-1,16.46,77,77,0,0,0,1.4,16.59A37.23,37.23,0,0,0,119.4,188a4.07,4.07,0,0,0,.43-.43c5.73-13.63,11.4-27.28,18.22-40.44a2,2,0,0,0,0-.5,5.83,5.83,0,0,0-.73-.1c-5.73,0-11.42,0-17.15.07" transform="translate(-46.95 -61.07)"/><path class="cls-1" d="M192.92,141.59a6.13,6.13,0,1,1,6.12-6.13,6.13,6.13,0,0,1-6.12,6.13m-.67-48.14a23.41,23.41,0,0,1-1.73,2.36c-1.9,2.27-3.9,4.47-5.86,6.7-6,6.93-11.93,13.92-17.49,21.25a177.45,177.45,0,0,0-10.59,15.79c-.2.37-.37.73-.64,1.3.9.1,1.64.2,2.37.3s1.4.2,2.1.27a109.85,109.85,0,0,1,22.65,5.09,18.87,18.87,0,0,1,4.66,2.4,4.44,4.44,0,0,1,1.67,1.9,2.25,2.25,0,0,1,.16,1.23,1.26,1.26,0,0,1-1.8.87,4.53,4.53,0,0,1-.79-.67c-.64-.6-3.74-1.36-4.6-1.53-2.37-.4-2.37-.43-4.73-.8-3.53-.57-7.1-1.07-10.63-1.57-1.23-.2-2.43-.33-3.63-.43-3.63-.3-7.29-.56-10.79-.86a4.66,4.66,0,0,0-1.43,2c-5.07,9.29-9.53,18.85-13.66,28.61-2,4.67-3.9,9.36-5.9,14-.9,2.06-1.93,4.09-2.93,6.09a14.45,14.45,0,0,1-2.76,3.73,8.92,8.92,0,0,1-12.43.37,15.74,15.74,0,0,1-2.73-3.2,31.25,31.25,0,0,1-3.36-7.29,77.29,77.29,0,0,1-3.4-17.83,145,145,0,0,1,.1-19.88c.1-1.47.3-3,.4-4.43,0-.4,0-.84,0-1.34-1.8-.36-3.53.27-5.27.27s-3.49.27-5.26.47-3.5.36-5.26.56-3.47.44-5.3.67c-.76,1.1-1.56,2.17-2.26,3.3C77.06,159.74,73,166.3,69,172.83a28.82,28.82,0,0,0-1.36,2.86,6.85,6.85,0,0,0-.27.8,1.69,1.69,0,0,1-3,.47,4.57,4.57,0,0,1-1-2.3,16.19,16.19,0,0,1,.3-5.6A38.86,38.86,0,0,1,66.17,161c1.1-2.53,2.3-5,3.43-7.53.23-.5.43-1,.7-1.66a46.31,46.31,0,0,0-6,.8c-5.4.89-10.76,2.06-16.12,3.26a80.65,80.65,0,1,0,144-62.39" transform="translate(-46.95 -61.07)"/><path class="cls-1" d="M101.75,125.79c-6.53,7.56-9.93,11.93-10.86,13.86,1.73.23,3.36-.3,5-.33s3.36-.24,5.06-.37a27.19,27.19,0,0,0,5.16-.4,206.67,206.67,0,0,1,6.3-23.25c0-.1-.07-.23-.13-.57a137.38,137.38,0,0,0-10.56,11.06" transform="translate(-46.95 -61.07)"/><path class="cls-1" d="M252.24,192.31c.61,3.48,3.34,5.83,8.89,5.83,4.17,0,7.3-1.12,7.3-4.4,0-2.48-1.46-3.89-8.56-5.71-12.35-3.16-16.5-6.9-16.5-13.39,0-9.3,8.09-15.49,21-15.49,15.54,0,20.88,7.27,21.21,14.19H272.06c-.37-2.23-1.89-4.81-7.72-4.81-3.63,0-5.81,1.7-5.81,4.1,0,2.55,2.12,3.42,8.47,5,13.24,3.3,16.72,7.81,16.72,14.37,0,9.21-8.2,15.68-23.25,15.68-13.7,0-21.2-5.39-22-15.35Z" transform="translate(-46.95 -61.07)"/><polygon class="cls-1" points="256.94 109.54 242.27 109.54 244.5 99.13 288.08 99.13 285.85 109.54 271.2 109.54 263.64 145.53 249.34 145.53 256.94 109.54"/><path class="cls-1" d="M355.31,160.2l-5.82,27.14c-1.72,7.9,2,10,6.45,10,5.21,0,7.9-1.9,9.59-10l5.81-27.14h14.23l-5.91,27.61c-3.05,14.29-9,19.85-25.29,19.85-12.84,0-22.44-4.92-19-21L341,160.2Z" transform="translate(-46.95 -61.07)"/><path class="cls-1" d="M395.33,160.2h21.06c14.6,0,21.89,9.64,21.89,20.34,0,16.09-11,26.06-29.17,26.06H385.5ZM402,196.38h7.86c9.44,0,13.18-7.88,13.18-15.56,0-6.79-3-10.44-9.8-10.44h-5.74Z" transform="translate(-46.95 -61.07)"/><polygon class="cls-1" points="418.35 99.13 408.52 145.53 394.22 145.53 404.05 99.13 418.35 99.13"/><path class="cls-1" d="M520,179.74c0,15.06-9.69,27.92-29.21,27.92-15.64,0-22.89-9-22.89-20.48,0-13.29,8.56-28,28.83-28,15.42,0,23.27,9.09,23.27,20.59m-36.81,7.34c0,6.5,2.67,10.52,8.73,10.52,9.31,0,12.88-10.74,12.88-18.91,0-5.21-2.14-9.68-8.8-9.68-9,0-12.81,10.66-12.81,18.07" transform="translate(-46.95 -61.07)"/><path class="cls-1" d="M238.43,127.45l9.82-46.39h16.82c6.42,16.84,8.42,23.61,10,29.65h.22c.39-4.25,2.25-13.35,3.88-21L281,81.06h13l-9.82,46.39H268.29c-2.1-6.67-8.75-26.7-10.21-32.69h-.2c-.68,5.58-2.37,13.23-4.08,21.41l-2.37,11.28Z" transform="translate(-46.95 -61.07)"/><path class="cls-1" d="M307.85,113.16c.6,3.48,3.33,5.83,8.89,5.83,4.17,0,7.3-1.11,7.3-4.4,0-2.48-1.47-3.88-8.56-5.7C303.13,105.72,299,102,299,95.5c0-9.31,8.09-15.5,21-15.5,15.54,0,20.88,7.27,21.21,14.2H327.66c-.37-2.24-1.89-4.81-7.72-4.81-3.62,0-5.81,1.7-5.81,4.09,0,2.56,2.13,3.42,8.47,5,13.24,3.29,16.72,7.8,16.72,14.37,0,9.2-8.19,15.67-23.25,15.67-13.69,0-21.2-5.39-22-15.35Z" transform="translate(-46.95 -61.07)"/><path class="cls-1" d="M346.94,127.45l6.6-31a28.1,28.1,0,0,1-7.4.47L348,88.29a23.15,23.15,0,0,0,9.7-3.15A12,12,0,0,1,364,83.3h6.26l-9.39,44.15Z" transform="translate(-46.95 -61.07)"/><path class="cls-1" d="M370.59,127.45l.25-1.08c2.05-9.18,5.49-14.89,18.19-21.53,8.32-4.35,11.19-5.6,11.19-8.87,0-2.82-2-4.14-4.76-4.14-4,0-5.75,2.52-6.69,6.19H375.55c1.89-9.8,8.71-15.65,21.15-15.65,9.79,0,17.84,4.61,17.84,13.79,0,6.56-3.53,9.61-13.24,14.37-7,3.42-9.65,5.11-11,7H412l-3.59,10Z" transform="translate(-46.95 -61.07)"/><path class="cls-1" d="M420.74,127.45l6.61-31a28.2,28.2,0,0,1-7.41.47l1.87-8.59a23.15,23.15,0,0,0,9.7-3.15,12,12,0,0,1,6.24-1.84H444l-9.39,44.15Z" transform="translate(-46.95 -61.07)"/><path class="cls-2" d="M465.27,83.3a6,6,0,1,1-6-6A6,6,0,0,1,465.27,83.3Z" transform="translate(-46.95 -61.07)"/></g></svg>