<svg id="圖層_2" data-name="圖層 2" xmlns="http://www.w3.org/2000/svg" viewBox="0 0 470.13 114.82"><defs><style>.cls-1{fill:#5eaeda;}.cls-2{fill:#ee8449;}.cls-3{fill:#fff;}</style></defs><path class="cls-1" d="M143.78,85.56,80,86.2a5.83,5.83,0,0,0-5.46,4.65L63.77,153.74c-.7,4.1,4,6.1,7.42,3.17l74.55-63.52C149.17,90.46,147.94,85.52,143.78,85.56ZM82,140.08a4.62,4.62,0,0,1-3.29,1.37,4.65,4.65,0,0,1-3.29-7.95,4.64,4.64,0,0,1,6.58,0,4.64,4.64,0,0,1,0,6.58Zm23.29-21.64a4.4,4.4,0,0,1-4.34,4.38L81.51,123a4.4,4.4,0,0,1-4.43-4.34v0a4.39,4.39,0,0,1,4.33-4.38l19.45-.21a4.4,4.4,0,0,1,4.43,4.34Zm22.2-18.35a4.4,4.4,0,0,1-4.34,4.38l-38.89.41a4.39,4.39,0,0,1-4.43-4.34v-.05a4.4,4.4,0,0,1,4.34-4.38l38.89-.41a4.39,4.39,0,0,1,4.43,4.34Z" transform="translate(-49.16 -85.56)"/><path class="cls-1" d="M125.71,128.7,51.16,192.22c-3.44,2.93-2.2,7.87,2,7.82l63.8-.63a5.82,5.82,0,0,0,5.45-4.65l10.75-62.89C133.82,127.77,129.14,125.77,125.71,128.7ZM116.5,188a6.3,6.3,0,0,1-5.92,5.05l-10.39.1a17.55,17.55,0,0,1,18.33-16.94Zm3.8-22.22c-.85-.07-1.71-.11-2.58-.11a28.07,28.07,0,0,0-28.06,27.59l-10.53.1a38.59,38.59,0,0,1,38.59-38.22,36.87,36.87,0,0,1,4.36.25Z" transform="translate(-49.16 -85.56)"/><path class="cls-2" d="M255.44,114.94A38,38,0,1,0,294.5,151.8,38,38,0,0,0,255.44,114.94ZM257,169.12a16.22,16.22,0,1,1,15.74-16.69A16.22,16.22,0,0,1,257,169.12Z" transform="translate(-49.16 -85.56)"/><path class="cls-2" d="M211.86,176.3l-13.65,14.29a1.22,1.22,0,0,1-1.72,0l-23.43-22.41-3.52,3.28v18.84a1.49,1.49,0,0,1-1.49,1.49h-19.2a1.5,1.5,0,0,1-1.51-1.49V117.46a1.51,1.51,0,0,1,1.51-1.5h19.2a1.5,1.5,0,0,1,1.49,1.5v23.66l26.3-24.55a1.4,1.4,0,0,1,2,.06l13.24,14.18a1.42,1.42,0,0,1-.08,2l-21.68,20.25,22.52,21.52A1.23,1.23,0,0,1,211.86,176.3Z" transform="translate(-49.16 -85.56)"/><path class="cls-2" d="M340.79,124.43a38,38,0,1,0,38,38A38,38,0,0,0,340.79,124.43Zm0,54.2A16.22,16.22,0,1,1,357,162.41,16.23,16.23,0,0,1,340.79,178.63Z" transform="translate(-49.16 -85.56)"/><path class="cls-2" d="M447.45,163.05c-1.64-5.16-6.7-8.85-7.07-9.09a27.59,27.59,0,0,0-6.45-3,20.11,20.11,0,0,0,4.37-3.47,19.33,19.33,0,0,0,5-9.11c.06-.32.12-.62.18-.92a18,18,0,0,0-9.92-19,39,39,0,0,0-7.74-2.9c-15.45-4-28.72,2.71-33.53,5.56a2.4,2.4,0,0,0-1.18,2.09c-.73,9.21-1.18,19-1.25,29.39-.09,12.88.42,25,1.32,36.12a2.38,2.38,0,0,0,1.06,1.8,2.77,2.77,0,0,0,1,.39c34.93,6.38,48.18-9.26,48.18-9.26C442.76,180,450.07,171.32,447.45,163.05Zm-41.36-30.33a22.87,22.87,0,0,1,5.44-1.89c2.38-.51,5.09-1.08,8.07,0a8.57,8.57,0,0,1,4.6,3.53,9.3,9.3,0,0,1,1,4.08v.09a7.86,7.86,0,0,1-.77,3.5c-2.28,4.69-9.62,6.85-18.31,5.6a48.89,48.89,0,0,1-.55-8A52,52,0,0,1,406.09,132.72ZM430.16,168a6.92,6.92,0,0,1-1,3.62c-2.81,4.84-11.89,7.07-22.66,5.79a42.55,42.55,0,0,1-.68-8.28,45.4,45.4,0,0,1,.66-7.16,31.51,31.51,0,0,1,6.73-2c2.95-.52,6.3-1.12,10,0,.93.29,4.18,1.32,5.7,3.66a8.31,8.31,0,0,1,1.21,4.21Z" transform="translate(-49.16 -85.56)"/><rect class="cls-2" x="429.42" y="16.46" width="13.06" height="13.06" rx="6.53"/><path class="cls-2" d="M478.3,185.75c-.43,1.93-.86,3.88-1.27,5.83a2.44,2.44,0,0,1-2.27,1.92q-11.4.56-17.09-.77a2.42,2.42,0,0,1-1.81-3q12.61-47.28,18.1-64.21a2.43,2.43,0,0,1,1.79-1.62,76.59,76.59,0,0,1,20.08-1.9,2.41,2.41,0,0,1,2.1,1.55q10.95,28.33,21.25,61.17a2.43,2.43,0,0,1-1.44,3q-5.44,2.1-17.82,3.74a2.43,2.43,0,0,1-2.66-1.72c-.54-1.89-1.08-3.73-1.61-5.5Q488.69,184.83,478.3,185.75Zm16.95-15.53q-5.14-16.56-8.62-26.54-3.78,14.07-7.19,28Z" transform="translate(-49.16 -85.56)"/><path class="cls-3" d="M305.78,83.17" transform="translate(-49.16 -85.56)"/></svg>