<svg id="圖層_2" data-name="圖層 2" xmlns="http://www.w3.org/2000/svg" viewBox="0 0 452.08 133.39"><defs><style>.cls-1{fill:#fff;}.cls-2{fill:#ebc77b;}.cls-3,.cls-4{fill:none;}.cls-3{stroke:#fff;stroke-miterlimit:10;stroke-width:2.25px;}</style></defs><path class="cls-1" d="M66,125.11a2.73,2.73,0,0,1,.85-1.79,2.61,2.61,0,0,1,1.88-.71H82.93a2.6,2.6,0,0,1,2.63,2.16l20.1,56q5.07-14.12,10.16-28t10.11-28a2.76,2.76,0,0,1,2.62-2.16h14.29a2.42,2.42,0,0,1,1.85.74,2.7,2.7,0,0,1,.77,1.76q2.1,20,4.27,39.81t4.33,39.75v.17c0,1.55-.84,2.33-2.51,2.33h-11a2.36,2.36,0,0,1-2.68-2.5L132,150.8l-19,52.39a4.46,4.46,0,0,1-.91,1.48,1.8,1.8,0,0,1-1.31.68H100.59a1.86,1.86,0,0,1-1.37-.66,4.06,4.06,0,0,1-.91-1.5Q93.63,190,88.92,177T79.4,150.85l-5.8,53.82c0,1.67-.88,2.5-2.62,2.5H59.93a2.21,2.21,0,0,1-2.51-2.5Z" transform="translate(-57.42 -75.04)"/><path class="cls-2" d="M241.91,204.75a4.67,4.67,0,0,1-.11-.59l-30.06-75.24-1.86-4.43a7.44,7.44,0,0,0-.9-1.2,2.47,2.47,0,0,0-2-.68h-9.17a2.8,2.8,0,0,0-2.07.77,3.31,3.31,0,0,0-.95,1.39l-30.69,76.41c-.19.55-.41,1.14-.65,1.79a16.75,16.75,0,0,0-.67,2.1,1.73,1.73,0,0,0,0,.51,1.28,1.28,0,0,0,.65,1.19,3.27,3.27,0,0,0,1.74.41h11.38a2.92,2.92,0,0,0,2.95-2.11q1-2.61,2.37-6.13t2.88-7.47l5.47-14.64q3.06-7.82,6.13-16.24c2-5.61,4.07-11,6.11-16.28l12,32.52,5.41,14.64c.69,1.84,1.39,3.68,2.1,5.5l2.19,5.47,1,2.63a3.74,3.74,0,0,0,1.14,1.58,3.15,3.15,0,0,0,1.94.53h11.22c1.66,0,2.51-.57,2.51-1.72A5.68,5.68,0,0,0,241.91,204.75Z" transform="translate(-57.42 -75.04)"/><path class="cls-1" d="M317.72,128.76a4.13,4.13,0,0,1,1.14,1,2.1,2.1,0,0,1,.45,1.36,2.87,2.87,0,0,1-.34,1.31l-5.52,9.4a2.68,2.68,0,0,1-2.06,1.31,2.58,2.58,0,0,1-.79-.15,3.54,3.54,0,0,1-.91-.42,30.42,30.42,0,0,0-7.69-4,26.34,26.34,0,0,0-8.71-1.42,25.49,25.49,0,0,0-10.65,2.19,26.15,26.15,0,0,0-8.37,6,26.65,26.65,0,0,0-5.49,8.83,29.61,29.61,0,0,0-2,10.88,29.2,29.2,0,0,0,2,10.78,26.87,26.87,0,0,0,5.49,8.81,25.6,25.6,0,0,0,19,8.08,26.92,26.92,0,0,0,8.8-1.43,28.63,28.63,0,0,0,7.71-4,2.39,2.39,0,0,1,.94-.45c.32-.08.59-.13.83-.17a2.77,2.77,0,0,1,2,1.24l5.64,9.52a2.77,2.77,0,0,1,.34,1.25,1.8,1.8,0,0,1-.49,1.31,8.2,8.2,0,0,1-1.11,1,45.27,45.27,0,0,1-11.53,5.55,42.6,42.6,0,0,1-13,2,43.66,43.66,0,0,1-37.58-21.51,42,42,0,0,1-4.38-10.36,43.76,43.76,0,0,1,4.38-33.6,44,44,0,0,1,6.8-8.85,42.34,42.34,0,0,1,8.8-6.8,44.5,44.5,0,0,1,10.39-4.39,44.09,44.09,0,0,1,24.46.35,44.22,44.22,0,0,1,11.45,5.49" transform="translate(-57.42 -75.04)"/><path class="cls-1" d="M334.74,125.28c0-1.78.84-2.67,2.5-2.67h34.85a26.91,26.91,0,0,1,10.77,2.16,28.11,28.11,0,0,1,8.74,5.87,27.24,27.24,0,0,1,8,19.36,26,26,0,0,1-1.09,7.52,26.91,26.91,0,0,1-3,6.65,27.61,27.61,0,0,1-4.61,5.56,28,28,0,0,1-5.92,4.19l14.81,29.21a4.1,4.1,0,0,0,.39,1.13,2.69,2.69,0,0,1,.29,1.2c0,1.14-.67,1.71-2,1.71H385.25a2.69,2.69,0,0,1-2.73-2.1l-13.78-27.34-2,0c-.7,0-1.67,0-2.9,0H351.31v26.93c0,1.63-.87,2.45-2.61,2.45H337.24a2.68,2.68,0,0,1-1.82-.6,2.34,2.34,0,0,1-.68-1.85Zm48,24.8a12.91,12.91,0,0,0-.9-4.74,13.54,13.54,0,0,0-2.57-4.12,13.17,13.17,0,0,0-8.88-4.27l-3.9-.08c-1.27,0-2.59,0-4,0H351.31v26.43h17.17a20.45,20.45,0,0,0,2.14-.12,13.08,13.08,0,0,0,4.92-1.25,11.8,11.8,0,0,0,3.84-2.87,12.92,12.92,0,0,0,2.48-4.09,13.39,13.39,0,0,0,.88-4.86" transform="translate(-57.42 -75.04)"/><path class="cls-1" d="M421.15,164.32A42.56,42.56,0,0,1,427,142.64a44.26,44.26,0,0,1,6.71-8.71,41.5,41.5,0,0,1,8.68-6.7,43.73,43.73,0,0,1,10.25-4.33,43,43,0,0,1,22.8,0,43.73,43.73,0,0,1,10.25,4.33,42.61,42.61,0,0,1,15.42,15.41,44.45,44.45,0,0,1,4.33,10.28A42.6,42.6,0,0,1,507,164.38a42.05,42.05,0,0,1-1.53,11.4A44.74,44.74,0,0,1,501.1,186a42.09,42.09,0,0,1-6.71,8.67,43,43,0,0,1-19,11,42.9,42.9,0,0,1-33.11-4.33,43.15,43.15,0,0,1-8.67-6.71,42.48,42.48,0,0,1-12.5-30.3m16.23-.11a27.33,27.33,0,0,0,2.05,10.61,27,27,0,0,0,5.62,8.6,26.65,26.65,0,0,0,8.42,5.78,26.85,26.85,0,0,0,21,0,27.24,27.24,0,0,0,8.45-5.78,26.86,26.86,0,0,0,5.64-8.6A27.69,27.69,0,0,0,482.93,145a26.85,26.85,0,0,0-8.45-5.82,27,27,0,0,0-21,0,26.27,26.27,0,0,0-8.42,5.82,27.43,27.43,0,0,0-7.67,19.18" transform="translate(-57.42 -75.04)"/><path class="cls-3" d="M421.15,164.32A42.56,42.56,0,0,1,427,142.64a44.26,44.26,0,0,1,6.71-8.71,41.5,41.5,0,0,1,8.68-6.7,43.73,43.73,0,0,1,10.25-4.33,43,43,0,0,1,22.8,0,43.73,43.73,0,0,1,10.25,4.33,42.61,42.61,0,0,1,15.42,15.41,44.45,44.45,0,0,1,4.33,10.28A42.6,42.6,0,0,1,507,164.38a42.05,42.05,0,0,1-1.53,11.4A44.74,44.74,0,0,1,501.1,186a42.09,42.09,0,0,1-6.71,8.67,43,43,0,0,1-19,11,42.9,42.9,0,0,1-33.11-4.33,43.15,43.15,0,0,1-8.67-6.71,42.48,42.48,0,0,1-12.5-30.3Zm16.23-.11a27.33,27.33,0,0,0,2.05,10.61,27,27,0,0,0,5.62,8.6,26.65,26.65,0,0,0,8.42,5.78,26.85,26.85,0,0,0,21,0,27.24,27.24,0,0,0,8.45-5.78,26.86,26.86,0,0,0,5.64-8.6A27.69,27.69,0,0,0,482.93,145a26.85,26.85,0,0,0-8.45-5.82,27,27,0,0,0-21,0,26.27,26.27,0,0,0-8.42,5.82,27.43,27.43,0,0,0-7.67,19.18Z" transform="translate(-57.42 -75.04)"/><path class="cls-1" d="M508.35,118.9,500.9,118a2.84,2.84,0,0,1-1.62-.72c-4.87-4.14-17.23-13.34-34.79-13.81-22-.58-36.92,13-40.83,16.86-.07,0-.11.08-.18.11a.59.59,0,0,1-.31.13c-.2,0-1.77.29-3.93.69a1.56,1.56,0,0,1-1.84-.67,2.18,2.18,0,0,1,.51-2.64l4.19-3.59c.09-.12.16-.23.24-.32a90.91,90.91,0,0,1,11.3-8.52c6-3.85,8.48-4.44,11.66-7.41,2.76-2.61,6.27-7.17,8.43-15.81.2-.22,1.84-4,3.63-5.52a8.42,8.42,0,0,1,3.27-1.49c.05,9.77,1.45,23.13,8.7,22.39,9.14-.93,29,9.15,39,21.2" transform="translate(-57.42 -75.04)"/><path class="cls-2" d="M508.44,118.9h-.08c-10.06-12-29.89-22.13-39-21.2-7.26.74-8.66-12.62-8.71-22.39a11.71,11.71,0,0,1,1.16-.19c12-1.3,28.78,14,28.78,14a70.47,70.47,0,0,1,18.86,28.22,1.08,1.08,0,0,1-1,1.52" transform="translate(-57.42 -75.04)"/><rect class="cls-4" x="359.73" width="92.02" height="46.32"/><path class="cls-2" d="M445.3,98.13c-3.17,3-5.64,3.56-11.65,7.41a90.4,90.4,0,0,0-11.31,8.52c.55-1.45,4.36-11.21,5.83-14.92a9.14,9.14,0,0,1,1.71-2.78,49,49,0,0,1,9.94-8.25,42.63,42.63,0,0,1,13.42-5.48.74.74,0,0,0,.48-.31c-2.16,8.64-5.66,13.21-8.42,15.81" transform="translate(-57.42 -75.04)"/></svg>